<svg width="93" height="43" viewBox="0 0 93 43" fill="none" xmlns="http://www.w3.org/2000/svg">
<ellipse cx="18.7795" cy="21.5802" rx="18.3815" ry="20.5514" fill="#0A50C9"/>
<ellipse cx="73.924" cy="21.5802" rx="18.3815" ry="20.5514" fill="#0A50C9"/>
<rect x="18.1533" y="0.829956" width="55.7706" height="41.3017" fill="#0A50C9"/>
<circle cx="22.0652" cy="21.5802" r="17.2966" fill="white"/>
<line x1="32.0142" y1="22.4808" x2="12.116" y2="22.4808" stroke="#0A50C9" stroke-width="2" stroke-linecap="round"/>
<path d="M12.0889 22.0507L18.2911 17.0666" stroke="#0A50C9" stroke-width="2" stroke-linecap="round"/>
<path d="M12.5095 22.8483L18.7795 27.7469" stroke="#0A50C9" stroke-width="2" stroke-linecap="round"/>
<path d="M54.2946 16.1478L50.7906 24.7878H49.5246L46.0206 16.1478H47.1426C47.2666 16.1478 47.3666 16.1798 47.4426 16.2438C47.5186 16.3038 47.5766 16.3798 47.6166 16.4718L49.8426 22.1058C49.9626 22.4218 50.0726 22.7858 50.1726 23.1978C50.2166 22.9938 50.2626 22.7998 50.3106 22.6158C50.3626 22.4318 50.4186 22.2618 50.4786 22.1058L52.6986 16.4718C52.7306 16.3918 52.7866 16.3178 52.8666 16.2498C52.9466 16.1818 53.0466 16.1478 53.1666 16.1478H54.2946ZM56.7831 18.5718C57.2351 18.5718 57.6431 18.6458 58.0071 18.7938C58.3751 18.9418 58.6871 19.1518 58.9431 19.4238C59.2031 19.6958 59.4031 20.0258 59.5431 20.4138C59.6831 20.8018 59.7531 21.2378 59.7531 21.7218C59.7531 22.2058 59.6831 22.6418 59.5431 23.0298C59.4031 23.4178 59.2031 23.7498 58.9431 24.0258C58.6871 24.2978 58.3751 24.5078 58.0071 24.6558C57.6431 24.8038 57.2351 24.8778 56.7831 24.8778C56.3271 24.8778 55.9151 24.8038 55.5471 24.6558C55.1831 24.5078 54.8711 24.2978 54.6111 24.0258C54.3511 23.7498 54.1511 23.4178 54.0111 23.0298C53.8711 22.6418 53.8011 22.2058 53.8011 21.7218C53.8011 21.2378 53.8711 20.8018 54.0111 20.4138C54.1511 20.0258 54.3511 19.6958 54.6111 19.4238C54.8711 19.1518 55.1831 18.9418 55.5471 18.7938C55.9151 18.6458 56.3271 18.5718 56.7831 18.5718ZM56.7831 23.8698C57.3351 23.8698 57.7451 23.6858 58.0131 23.3178C58.2851 22.9458 58.4211 22.4158 58.4211 21.7278C58.4211 21.0398 58.2851 20.5098 58.0131 20.1378C57.7451 19.7618 57.3351 19.5738 56.7831 19.5738C56.2231 19.5738 55.8071 19.7618 55.5351 20.1378C55.2631 20.5098 55.1271 21.0398 55.1271 21.7278C55.1271 22.4158 55.2631 22.9458 55.5351 23.3178C55.8071 23.6858 56.2231 23.8698 56.7831 23.8698ZM62.3065 15.9078V24.7878H61.0165V15.9078H62.3065ZM69.2868 18.6678L66.8268 24.7878H65.6628L63.2028 18.6678H64.2648C64.3648 18.6678 64.4468 18.6938 64.5108 18.7458C64.5788 18.7938 64.6228 18.8518 64.6428 18.9198L65.9988 22.4838C66.0548 22.6518 66.1048 22.8178 66.1488 22.9818C66.1928 23.1458 66.2308 23.3118 66.2628 23.4798C66.2948 23.3118 66.3328 23.1478 66.3768 22.9878C66.4248 22.8238 66.4768 22.6558 66.5328 22.4838L67.9128 18.9198C67.9368 18.8478 67.9808 18.7878 68.0448 18.7398C68.1088 18.6918 68.1868 18.6678 68.2788 18.6678H69.2868ZM74.0065 21.0378C74.0065 20.8218 73.9745 20.6218 73.9105 20.4378C73.8505 20.2498 73.7605 20.0878 73.6405 19.9518C73.5205 19.8118 73.3705 19.7038 73.1905 19.6278C73.0145 19.5478 72.8105 19.5078 72.5785 19.5078C72.1105 19.5078 71.7425 19.6418 71.4745 19.9098C71.2065 20.1778 71.0365 20.5538 70.9645 21.0378H74.0065ZM70.9285 21.8298C70.9445 22.1778 70.9985 22.4798 71.0905 22.7358C71.1825 22.9878 71.3045 23.1978 71.4565 23.3658C71.6125 23.5338 71.7965 23.6598 72.0085 23.7438C72.2245 23.8238 72.4645 23.8638 72.7285 23.8638C72.9805 23.8638 73.1985 23.8358 73.3825 23.7798C73.5665 23.7198 73.7265 23.6558 73.8625 23.5878C73.9985 23.5158 74.1145 23.4518 74.2105 23.3958C74.3065 23.3358 74.3945 23.3058 74.4745 23.3058C74.5785 23.3058 74.6585 23.3458 74.7145 23.4258L75.0805 23.8998C74.9285 24.0798 74.7565 24.2318 74.5645 24.3558C74.3725 24.4798 74.1685 24.5818 73.9525 24.6618C73.7365 24.7378 73.5145 24.7918 73.2865 24.8238C73.0585 24.8598 72.8365 24.8778 72.6205 24.8778C72.1965 24.8778 71.8025 24.8078 71.4385 24.6678C71.0785 24.5238 70.7645 24.3138 70.4965 24.0378C70.2325 23.7618 70.0245 23.4198 69.8725 23.0118C69.7245 22.6038 69.6505 22.1338 69.6505 21.6018C69.6505 21.1778 69.7165 20.7818 69.8485 20.4138C69.9845 20.0458 70.1765 19.7258 70.4245 19.4538C70.6765 19.1818 70.9805 18.9678 71.3365 18.8118C71.6965 18.6518 72.1025 18.5718 72.5545 18.5718C72.9305 18.5718 73.2785 18.6338 73.5985 18.7578C73.9185 18.8778 74.1945 19.0558 74.4265 19.2918C74.6585 19.5278 74.8385 19.8178 74.9665 20.1618C75.0985 20.5018 75.1645 20.8898 75.1645 21.3258C75.1645 21.5258 75.1425 21.6598 75.0985 21.7278C75.0545 21.7958 74.9745 21.8298 74.8585 21.8298H70.9285ZM77.5855 19.8018C77.7775 19.4138 78.0095 19.1098 78.2815 18.8898C78.5535 18.6658 78.8795 18.5538 79.2595 18.5538C79.3915 18.5538 79.5155 18.5698 79.6315 18.6018C79.7475 18.6298 79.8515 18.6738 79.9435 18.7338L79.8535 19.7058C79.8375 19.7738 79.8115 19.8218 79.7755 19.8498C79.7435 19.8738 79.6995 19.8858 79.6435 19.8858C79.5835 19.8858 79.4975 19.8758 79.3855 19.8558C79.2735 19.8318 79.1555 19.8198 79.0315 19.8198C78.8515 19.8198 78.6915 19.8458 78.5515 19.8978C78.4155 19.9498 78.2915 20.0258 78.1795 20.1258C78.0715 20.2258 77.9755 20.3478 77.8915 20.4918C77.8075 20.6358 77.7295 20.7998 77.6575 20.9838V24.7878H76.3675V18.6678H77.1175C77.2535 18.6678 77.3475 18.6938 77.3995 18.7458C77.4515 18.7938 77.4875 18.8798 77.5075 19.0038L77.5855 19.8018Z" fill="white"/>
</svg>
